<?xml version="1.0" standalone="no"?>
<!DOCTYPE svg PUBLIC "-//W3C//DTD SVG 20010904//EN"
 "http://www.w3.org/TR/2001/REC-SVG-20010904/DTD/svg10.dtd">
<svg version="1.0" xmlns="http://www.w3.org/2000/svg"
 width="400.000000pt" height="400.000000pt" viewBox="0 0 400.000000 400.000000"
 preserveAspectRatio="xMidYMid meet">
<metadata>
Created by potrace 1.11, written by Peter Selinger 2001-2013
</metadata>
<g transform="translate(0.000000,400.000000) scale(0.100000,-0.100000)"
fill="#000000" stroke="none">
<path d="M1645 3954 c3 -26 4 -68 0 -95 -6 -46 -9 -49 -35 -49 -16 0 -32 -4
-35 -10 -3 -5 -15 -10 -27 -10 -11 0 -51 -11 -87 -24 -37 -13 -89 -27 -117
-31 -135 -17 -204 -46 -277 -114 -62 -58 -125 -145 -143 -197 -9 -27 -27 -62
-41 -79 -120 -150 -143 -181 -232 -322 -58 -90 -146 -265 -178 -353 -45 -122
-70 -299 -53 -377 6 -29 22 -72 35 -95 14 -24 29 -52 34 -63 12 -27 124 -135
230 -222 164 -134 302 -223 370 -238 17 -4 33 -11 36 -16 4 -5 19 -9 36 -9 16
0 37 -4 47 -9 9 -5 49 -14 87 -21 83 -13 189 -36 265 -57 30 -8 76 -16 101
-18 80 -7 211 -46 289 -86 78 -40 210 -160 210 -192 0 -9 -24 -42 -54 -74 -47
-51 -186 -245 -186 -260 0 -3 -10 -19 -22 -36 -13 -18 -28 -42 -35 -54 -19
-37 -47 -87 -55 -98 -4 -5 -18 -24 -30 -40 -13 -17 -28 -39 -34 -50 -32 -60
-50 -91 -55 -95 -6 -6 -49 -97 -49 -106 0 -3 -11 -29 -23 -57 -13 -29 -32 -79
-43 -112 -10 -33 -35 -95 -56 -138 -21 -43 -45 -93 -52 -112 l-15 -35 28 0
c25 0 32 9 83 118 31 64 64 140 74 167 10 28 20 55 24 60 4 6 15 36 25 69 18
60 92 201 129 247 22 27 59 86 170 269 36 58 74 121 86 140 12 19 50 65 84
102 l61 67 160 -9 c88 -6 215 -15 283 -22 108 -10 124 -10 135 4 10 13 51 17
241 23 226 6 229 7 286 36 32 16 65 29 74 29 14 0 70 19 121 40 44 19 117 40
140 40 13 0 27 5 30 10 4 7 24 8 51 4 68 -10 85 -1 139 75 50 71 72 84 95 56
19 -23 30 -18 30 16 0 20 -12 46 -37 77 -21 26 -41 49 -45 50 -5 2 -8 9 -8 16
0 6 -18 30 -41 51 -23 22 -58 65 -79 95 -20 30 -53 73 -71 96 -19 23 -44 54
-57 70 -35 45 -198 227 -294 328 -131 138 -154 174 -165 254 -6 42 -4 46 43
95 63 66 83 95 132 193 22 44 59 108 82 143 23 35 53 98 66 140 14 42 29 90
34 107 6 17 10 40 10 52 0 12 10 57 23 100 15 53 22 103 22 163 0 77 -3 90
-27 127 -35 52 -62 70 -133 88 l-55 15 -74 -36 c-71 -34 -74 -37 -105 -103
-18 -37 -43 -86 -57 -109 -28 -47 -159 -173 -180 -173 -7 0 -16 10 -20 22 -3
12 -21 42 -39 67 -18 25 -36 56 -39 68 -4 13 -25 46 -47 74 -32 39 -59 59
-122 90 -44 21 -89 39 -98 39 -10 0 -20 4 -23 9 -3 4 -40 11 -83 15 -43 3
-107 15 -141 26 -39 12 -92 20 -136 20 -40 0 -101 3 -135 6 l-61 7 0 88 0 89
-44 0 -43 0 -7 -57 c-14 -124 21 -194 94 -192 77 2 268 -14 320 -27 30 -7 98
-21 150 -29 166 -28 266 -88 321 -197 12 -24 33 -61 48 -83 14 -22 35 -57 45
-77 15 -30 25 -38 45 -38 37 1 61 16 153 101 71 65 90 90 133 174 54 105 66
118 135 136 87 23 160 -36 160 -131 0 -25 -11 -92 -26 -150 -14 -58 -36 -150
-50 -205 -18 -74 -36 -118 -68 -170 -25 -38 -68 -114 -97 -169 -32 -60 -75
-123 -111 -161 -32 -34 -58 -68 -58 -74 0 -6 -4 -11 -9 -11 -8 0 -7 -17 10
-105 8 -41 21 -61 67 -111 31 -33 80 -87 107 -119 28 -32 100 -111 160 -174
61 -64 130 -142 155 -175 25 -32 62 -79 83 -104 22 -25 49 -62 62 -81 12 -20
37 -49 55 -66 38 -36 74 -101 64 -118 -4 -7 -27 -38 -51 -70 -39 -50 -48 -57
-78 -57 -45 0 -224 -43 -250 -60 -5 -3 -37 -14 -70 -24 -33 -10 -68 -22 -77
-27 -10 -5 -29 -9 -43 -9 -14 0 -33 -4 -43 -9 -9 -5 -71 -16 -137 -25 -66 -9
-138 -19 -160 -22 -22 -4 -139 -7 -260 -7 -190 0 -295 7 -404 28 -14 3 -42 8
-62 11 -29 5 -56 26 -135 105 -68 68 -106 99 -122 99 -12 0 -53 14 -90 31 -60
29 -81 33 -197 39 -71 4 -143 13 -160 20 -28 11 -86 28 -280 80 -274 73 -361
125 -618 366 -82 78 -157 185 -173 247 -10 41 4 117 22 117 28 0 134 60 150
85 38 58 -5 179 -67 192 -17 3 -28 8 -27 12 25 53 125 244 141 269 12 18 43
58 68 88 25 29 60 80 78 111 54 98 72 127 102 160 15 18 32 47 37 66 10 35 82
136 123 173 42 36 103 67 149 75 128 22 166 31 223 53 35 13 92 27 127 31 36
4 80 16 98 27 l34 21 -7 101 c-4 56 -9 104 -12 109 -2 4 -22 7 -45 7 l-40 0 7
-46z m-1037 -1330 c24 -17 28 -40 11 -77 -19 -42 -93 -63 -106 -31 -7 20 13
89 33 109 19 19 34 19 62 -1z"/>
<path d="M544 2565 c-8 -19 3 -35 26 -35 19 0 30 17 23 38 -6 17 -42 15 -49
-3z"/>
<path d="M2155 2653 c-16 -8 -47 -31 -67 -51 -33 -32 -38 -42 -38 -82 1 -65
35 -100 98 -100 65 0 214 65 250 108 18 23 15 107 -4 126 -22 22 -196 22 -239
-1z m169 -33 c31 -11 35 -49 9 -71 -36 -30 -125 -63 -171 -63 -44 -1 -47 1
-50 27 -10 82 115 144 212 107z"/>
<path d="M2194 2565 c-4 -9 -2 -21 4 -27 16 -16 47 -5 47 17 0 26 -42 34 -51
10z"/>
<path d="M1255 2374 c-18 -44 -20 -128 -2 -142 6 -5 27 -13 45 -17 43 -9 56
19 23 47 -22 17 -23 23 -16 83 6 61 5 65 -14 65 -14 0 -25 -11 -36 -36z"/>
<path d="M1512 1992 c-52 -55 -105 -81 -174 -84 -56 -3 -63 -5 -66 -25 -3 -18
3 -23 33 -29 56 -10 105 1 166 37 73 44 116 93 99 114 -18 21 -28 19 -58 -13z"/>
<path d="M2571 626 c-1 -25 2 -46 6 -46 5 0 24 14 42 31 26 23 41 30 63 27 16
-3 31 -2 33 2 3 4 -19 10 -48 13 -28 4 -61 9 -73 12 -18 6 -20 2 -23 -39z"/>
<path d="M2790 653 c-8 -3 -22 -7 -30 -10 -8 -4 -18 -7 -22 -7 -3 -1 -10 -4
-14 -8 -4 -5 47 -8 114 -8 84 0 122 -4 124 -12 3 -9 26 -9 101 0 118 15 297
16 297 2 0 -5 18 -10 40 -10 22 0 40 5 40 10 0 15 167 13 173 -2 3 -7 5 -2 4
12 -1 20 -7 25 -29 27 -15 1 -28 -2 -28 -7 0 -12 -687 -14 -692 -2 -4 11 -58
21 -78 15z"/>
<path d="M3298 583 c12 -2 32 -2 45 0 12 2 2 4 -23 4 -25 0 -35 -2 -22 -4z"/>
<path d="M3058 563 c12 -2 32 -2 45 0 12 2 2 4 -23 4 -25 0 -35 -2 -22 -4z"/>
<path d="M2574 280 c0 -157 2 -221 3 -142 2 78 2 206 0 285 -1 78 -3 14 -3
-143z"/>
<path d="M3609 458 c-3 -44 -6 -65 -13 -76 -3 -6 -2 -13 4 -17 12 -7 14 -45 2
-45 -4 0 -6 -18 -4 -40 3 -32 1 -40 -12 -40 -23 0 -22 75 2 90 12 8 13 13 5
16 -7 3 -13 15 -13 25 0 11 -4 18 -9 15 -5 -4 -8 -56 -7 -116 2 -61 -1 -110
-6 -110 -4 0 -8 -36 -8 -80 l0 -80 28 0 29 0 6 212 c4 117 10 225 13 241 4 17
2 27 -5 27 -6 0 -12 -10 -12 -22z m-22 -290 c-2 -13 -4 -3 -4 22 0 25 2 35 4
23 2 -13 2 -33 0 -45z"/>
<path d="M3523 200 c0 -25 2 -35 4 -22 2 12 2 32 0 45 -2 12 -4 2 -4 -23z"/>
</g>
</svg>
